<mxfile host="app.diagrams.net" agent="Mozilla/5.0 (Macintosh; Intel Mac OS X 10_15_7) AppleWebKit/605.1.15 (KHTML, like Gecko) Version/18.2 Safari/605.1.15" version="26.0.4">
  <diagram name="Page-1" id="OugwGV33cnmOnA-3O93_">
    <mxGraphModel dx="2066" dy="1110" grid="0" gridSize="10" guides="1" tooltips="1" connect="1" arrows="0" fold="1" page="0" pageScale="1" pageWidth="827" pageHeight="1169" math="0" shadow="0">
      <root>
        <mxCell id="0" />
        <mxCell id="1" parent="0" />
        <mxCell id="q-qK2rlPC7f7n4-ZsQlf-6" value="&lt;font style=&quot;font-size: 16px;&quot;&gt;user&lt;/font&gt;" style="swimlane;whiteSpace=wrap;html=1;fillColor=#dae8fc;strokeColor=#6c8ebf;" parent="1" vertex="1">
          <mxGeometry x="-305" y="130" width="300" height="420" as="geometry" />
        </mxCell>
        <mxCell id="q-qK2rlPC7f7n4-ZsQlf-9" value="&lt;h1 style=&quot;margin-top: 0px;&quot;&gt;&lt;div&gt;&lt;font face=&quot;ui-sans-serif, -apple-system, system-ui, Segoe UI, Helvetica, Apple Color Emoji, Arial, sans-serif, Segoe UI Emoji, Segoe UI Symbol&quot; color=&quot;#0d0d0d&quot;&gt;&lt;span style=&quot;caret-color: rgb(13, 13, 13); font-size: 15px;&quot;&gt;Attributes&lt;/span&gt;&lt;/font&gt;&lt;/div&gt;&lt;div&gt;&lt;font face=&quot;ui-sans-serif, -apple-system, system-ui, Segoe UI, Helvetica, Apple Color Emoji, Arial, sans-serif, Segoe UI Emoji, Segoe UI Symbol&quot; color=&quot;#0d0d0d&quot;&gt;&lt;span style=&quot;caret-color: rgb(13, 13, 13); font-size: 15px; font-weight: normal;&quot;&gt;- userId&lt;/span&gt;&lt;/font&gt;&lt;/div&gt;&lt;div&gt;&lt;font face=&quot;ui-sans-serif, -apple-system, system-ui, Segoe UI, Helvetica, Apple Color Emoji, Arial, sans-serif, Segoe UI Emoji, Segoe UI Symbol&quot; color=&quot;#0d0d0d&quot;&gt;&lt;span style=&quot;caret-color: rgb(13, 13, 13); font-size: 15px; font-weight: normal;&quot;&gt;- name&lt;/span&gt;&lt;/font&gt;&lt;/div&gt;&lt;div&gt;&lt;font face=&quot;ui-sans-serif, -apple-system, system-ui, Segoe UI, Helvetica, Apple Color Emoji, Arial, sans-serif, Segoe UI Emoji, Segoe UI Symbol&quot; color=&quot;#0d0d0d&quot;&gt;&lt;span style=&quot;caret-color: rgb(13, 13, 13); font-size: 15px; font-weight: normal;&quot;&gt;- email&lt;/span&gt;&lt;/font&gt;&lt;/div&gt;&lt;div&gt;&lt;font face=&quot;ui-sans-serif, -apple-system, system-ui, Segoe UI, Helvetica, Apple Color Emoji, Arial, sans-serif, Segoe UI Emoji, Segoe UI Symbol&quot; color=&quot;#0d0d0d&quot;&gt;&lt;span style=&quot;caret-color: rgb(13, 13, 13); font-size: 15px; font-weight: normal;&quot;&gt;-password&lt;/span&gt;&lt;/font&gt;&lt;/div&gt;&lt;div&gt;&lt;font face=&quot;ui-sans-serif, -apple-system, system-ui, Segoe UI, Helvetica, Apple Color Emoji, Arial, sans-serif, Segoe UI Emoji, Segoe UI Symbol&quot; color=&quot;#0d0d0d&quot;&gt;&lt;span style=&quot;caret-color: rgb(13, 13, 13); font-size: 15px; font-weight: normal;&quot;&gt;-subscriptionType&lt;/span&gt;&lt;/font&gt;&lt;/div&gt;&lt;div&gt;&lt;font face=&quot;ui-sans-serif, -apple-system, system-ui, Segoe UI, Helvetica, Apple Color Emoji, Arial, sans-serif, Segoe UI Emoji, Segoe UI Symbol&quot; color=&quot;#0d0d0d&quot;&gt;&lt;span style=&quot;caret-color: rgb(13, 13, 13); font-size: 15px; font-weight: normal;&quot;&gt;-profile photo&amp;nbsp;&lt;/span&gt;&lt;/font&gt;&lt;/div&gt;&lt;div&gt;&lt;font face=&quot;ui-sans-serif, -apple-system, system-ui, Segoe UI, Helvetica, Apple Color Emoji, Arial, sans-serif, Segoe UI Emoji, Segoe UI Symbol&quot; color=&quot;#0d0d0d&quot;&gt;&lt;span style=&quot;caret-color: rgb(13, 13, 13); font-size: 15px;&quot;&gt;Methods&lt;/span&gt;&lt;/font&gt;&lt;/div&gt;&lt;div&gt;&lt;font face=&quot;ui-sans-serif, -apple-system, system-ui, Segoe UI, Helvetica, Apple Color Emoji, Arial, sans-serif, Segoe UI Emoji, Segoe UI Symbol&quot; color=&quot;#0d0d0d&quot;&gt;&lt;span style=&quot;caret-color: rgb(13, 13, 13); font-size: 15px; font-weight: normal;&quot;&gt;-register()&lt;/span&gt;&lt;/font&gt;&lt;/div&gt;&lt;div&gt;&lt;font face=&quot;ui-sans-serif, -apple-system, system-ui, Segoe UI, Helvetica, Apple Color Emoji, Arial, sans-serif, Segoe UI Emoji, Segoe UI Symbol&quot; color=&quot;#0d0d0d&quot;&gt;&lt;span style=&quot;caret-color: rgb(13, 13, 13); font-size: 15px; font-weight: normal;&quot;&gt;- login()&lt;/span&gt;&lt;/font&gt;&lt;/div&gt;&lt;div&gt;&lt;font face=&quot;ui-sans-serif, -apple-system, system-ui, Segoe UI, Helvetica, Apple Color Emoji, Arial, sans-serif, Segoe UI Emoji, Segoe UI Symbol&quot; color=&quot;#0d0d0d&quot;&gt;&lt;span style=&quot;caret-color: rgb(13, 13, 13); font-size: 15px; font-weight: normal;&quot;&gt;-profile()&lt;/span&gt;&lt;/font&gt;&lt;/div&gt;&lt;div&gt;&lt;font face=&quot;ui-sans-serif, -apple-system, system-ui, Segoe UI, Helvetica, Apple Color Emoji, Arial, sans-serif, Segoe UI Emoji, Segoe UI Symbol&quot; color=&quot;#0d0d0d&quot;&gt;&lt;span style=&quot;caret-color: rgb(13, 13, 13); font-size: 15px; font-weight: normal;&quot;&gt;-change_password()&lt;/span&gt;&lt;/font&gt;&lt;/div&gt;&lt;div&gt;&lt;font face=&quot;ui-sans-serif, -apple-system, system-ui, Segoe UI, Helvetica, Apple Color Emoji, Arial, sans-serif, Segoe UI Emoji, Segoe UI Symbol&quot; color=&quot;#0d0d0d&quot;&gt;&lt;span style=&quot;caret-color: rgb(13, 13, 13); font-size: 15px; font-weight: normal;&quot;&gt;&lt;br&gt;&lt;/span&gt;&lt;/font&gt;&lt;/div&gt;&lt;/h1&gt;" style="text;html=1;whiteSpace=wrap;overflow=hidden;rounded=0;" parent="q-qK2rlPC7f7n4-ZsQlf-6" vertex="1">
          <mxGeometry x="10" y="30" width="250" height="380" as="geometry" />
        </mxCell>
        <mxCell id="q-qK2rlPC7f7n4-ZsQlf-12" value="&lt;font size=&quot;3&quot;&gt;Admin&lt;/font&gt;" style="swimlane;whiteSpace=wrap;html=1;fillColor=#dae8fc;strokeColor=#6c8ebf;" parent="1" vertex="1">
          <mxGeometry x="260" y="170" width="280" height="340" as="geometry" />
        </mxCell>
        <mxCell id="q-qK2rlPC7f7n4-ZsQlf-13" value="&lt;h1 style=&quot;margin-top: 0px;&quot;&gt;&lt;div&gt;&lt;font face=&quot;ui-sans-serif, -apple-system, system-ui, Segoe UI, Helvetica, Apple Color Emoji, Arial, sans-serif, Segoe UI Emoji, Segoe UI Symbol&quot; color=&quot;#0d0d0d&quot;&gt;&lt;span style=&quot;caret-color: rgb(13, 13, 13); font-size: 15px;&quot;&gt;Attributes&lt;/span&gt;&lt;/font&gt;&lt;/div&gt;&lt;div&gt;&lt;font face=&quot;ui-sans-serif, -apple-system, system-ui, Segoe UI, Helvetica, Apple Color Emoji, Arial, sans-serif, Segoe UI Emoji, Segoe UI Symbol&quot; color=&quot;#0d0d0d&quot;&gt;&lt;span style=&quot;caret-color: rgb(13, 13, 13); font-size: 15px; font-weight: normal;&quot;&gt;- adminId&lt;/span&gt;&lt;/font&gt;&lt;/div&gt;&lt;div&gt;&lt;span style=&quot;caret-color: rgb(13, 13, 13); color: rgb(13, 13, 13); font-family: ui-sans-serif, -apple-system, system-ui, &amp;quot;Segoe UI&amp;quot;, Helvetica, &amp;quot;Apple Color Emoji&amp;quot;, Arial, sans-serif, &amp;quot;Segoe UI Emoji&amp;quot;, &amp;quot;Segoe UI Symbol&amp;quot;; font-size: 15px; font-weight: normal;&quot;&gt;-name&lt;/span&gt;&lt;/div&gt;&lt;div&gt;&lt;span style=&quot;caret-color: rgb(13, 13, 13); color: rgb(13, 13, 13); font-family: ui-sans-serif, -apple-system, system-ui, &amp;quot;Segoe UI&amp;quot;, Helvetica, &amp;quot;Apple Color Emoji&amp;quot;, Arial, sans-serif, &amp;quot;Segoe UI Emoji&amp;quot;, &amp;quot;Segoe UI Symbol&amp;quot;; font-size: 15px; font-weight: normal;&quot;&gt;- email&amp;nbsp;&lt;/span&gt;&lt;/div&gt;&lt;div&gt;&lt;span style=&quot;caret-color: rgb(13, 13, 13); color: rgb(13, 13, 13); font-family: ui-sans-serif, -apple-system, system-ui, &amp;quot;Segoe UI&amp;quot;, Helvetica, &amp;quot;Apple Color Emoji&amp;quot;, Arial, sans-serif, &amp;quot;Segoe UI Emoji&amp;quot;, &amp;quot;Segoe UI Symbol&amp;quot;; font-size: 15px;&quot;&gt;Methods&lt;/span&gt;&lt;/div&gt;&lt;div&gt;&lt;font face=&quot;ui-sans-serif, -apple-system, system-ui, Segoe UI, Helvetica, Apple Color Emoji, Arial, sans-serif, Segoe UI Emoji, Segoe UI Symbol&quot; color=&quot;#0d0d0d&quot;&gt;&lt;span style=&quot;caret-color: rgb(13, 13, 13); font-size: 15px; font-weight: normal;&quot;&gt;-generate_reports()&lt;/span&gt;&lt;/font&gt;&lt;/div&gt;&lt;div&gt;&lt;font face=&quot;ui-sans-serif, -apple-system, system-ui, Segoe UI, Helvetica, Apple Color Emoji, Arial, sans-serif, Segoe UI Emoji, Segoe UI Symbol&quot; color=&quot;#0d0d0d&quot;&gt;&lt;span style=&quot;caret-color: rgb(13, 13, 13); font-size: 15px; font-weight: normal;&quot;&gt;-manage_subscriptions()&lt;/span&gt;&lt;/font&gt;&lt;/div&gt;&lt;div&gt;&lt;font face=&quot;ui-sans-serif, -apple-system, system-ui, Segoe UI, Helvetica, Apple Color Emoji, Arial, sans-serif, Segoe UI Emoji, Segoe UI Symbol&quot; color=&quot;#0d0d0d&quot;&gt;&lt;span style=&quot;caret-color: rgb(13, 13, 13); font-size: 15px; font-weight: normal;&quot;&gt;-manage_users()&lt;/span&gt;&lt;/font&gt;&lt;/div&gt;&lt;div&gt;&lt;font face=&quot;ui-sans-serif, -apple-system, system-ui, Segoe UI, Helvetica, Apple Color Emoji, Arial, sans-serif, Segoe UI Emoji, Segoe UI Symbol&quot; color=&quot;#0d0d0d&quot;&gt;&lt;span style=&quot;caret-color: rgb(13, 13, 13); font-size: 15px; font-weight: normal;&quot;&gt;&lt;br&gt;&lt;/span&gt;&lt;/font&gt;&lt;/div&gt;&lt;/h1&gt;" style="text;html=1;whiteSpace=wrap;overflow=hidden;rounded=0;" parent="q-qK2rlPC7f7n4-ZsQlf-12" vertex="1">
          <mxGeometry x="10" y="30" width="260" height="250" as="geometry" />
        </mxCell>
        <mxCell id="q-qK2rlPC7f7n4-ZsQlf-14" value="&lt;font size=&quot;3&quot;&gt;ColorProfile&lt;/font&gt;" style="swimlane;whiteSpace=wrap;html=1;fillColor=#dae8fc;strokeColor=#6c8ebf;" parent="1" vertex="1">
          <mxGeometry x="480" y="710" width="280" height="250" as="geometry" />
        </mxCell>
        <mxCell id="q-qK2rlPC7f7n4-ZsQlf-15" value="&lt;h1 style=&quot;margin-top: 0px;&quot;&gt;&lt;div&gt;&lt;font face=&quot;ui-sans-serif, -apple-system, system-ui, Segoe UI, Helvetica, Apple Color Emoji, Arial, sans-serif, Segoe UI Emoji, Segoe UI Symbol&quot; color=&quot;#0d0d0d&quot;&gt;&lt;span style=&quot;caret-color: rgb(13, 13, 13); font-size: 15px;&quot;&gt;Attributes&lt;/span&gt;&lt;/font&gt;&lt;/div&gt;&lt;div&gt;&lt;font face=&quot;ui-sans-serif, -apple-system, system-ui, Segoe UI, Helvetica, Apple Color Emoji, Arial, sans-serif, Segoe UI Emoji, Segoe UI Symbol&quot; color=&quot;#0d0d0d&quot;&gt;&lt;span style=&quot;caret-color: rgb(13, 13, 13); font-size: 15px; font-weight: normal;&quot;&gt;-skintone&lt;/span&gt;&lt;/font&gt;&lt;/div&gt;&lt;div&gt;&lt;span style=&quot;caret-color: rgb(13, 13, 13); font-size: 15px; font-weight: normal; color: rgb(13, 13, 13); font-family: ui-sans-serif, -apple-system, system-ui, &amp;quot;Segoe UI&amp;quot;, Helvetica, &amp;quot;Apple Color Emoji&amp;quot;, Arial, sans-serif, &amp;quot;Segoe UI Emoji&amp;quot;, &amp;quot;Segoe UI Symbol&amp;quot;;&quot;&gt;-haircolour&lt;/span&gt;&lt;/div&gt;&lt;div&gt;&lt;span style=&quot;caret-color: rgb(13, 13, 13); font-size: 15px; font-weight: normal; color: rgb(13, 13, 13); font-family: ui-sans-serif, -apple-system, system-ui, &amp;quot;Segoe UI&amp;quot;, Helvetica, &amp;quot;Apple Color Emoji&amp;quot;, Arial, sans-serif, &amp;quot;Segoe UI Emoji&amp;quot;, &amp;quot;Segoe UI Symbol&amp;quot;;&quot;&gt;-eyecolour&lt;/span&gt;&lt;/div&gt;&lt;div&gt;&lt;span style=&quot;caret-color: rgb(13, 13, 13); font-size: 15px; font-weight: normal; color: rgb(13, 13, 13); font-family: ui-sans-serif, -apple-system, system-ui, &amp;quot;Segoe UI&amp;quot;, Helvetica, &amp;quot;Apple Color Emoji&amp;quot;, Arial, sans-serif, &amp;quot;Segoe UI Emoji&amp;quot;, &amp;quot;Segoe UI Symbol&amp;quot;;&quot;&gt;-basicanalysis&amp;nbsp;&lt;/span&gt;&lt;/div&gt;&lt;div&gt;&lt;font face=&quot;ui-sans-serif, -apple-system, system-ui, Segoe UI, Helvetica, Apple Color Emoji, Arial, sans-serif, Segoe UI Emoji, Segoe UI Symbol&quot; color=&quot;#0d0d0d&quot;&gt;&lt;span style=&quot;caret-color: rgb(13, 13, 13); font-size: 15px;&quot;&gt;Methods&lt;/span&gt;&lt;/font&gt;&lt;/div&gt;&lt;div&gt;&lt;font face=&quot;ui-sans-serif, -apple-system, system-ui, Segoe UI, Helvetica, Apple Color Emoji, Arial, sans-serif, Segoe UI Emoji, Segoe UI Symbol&quot; color=&quot;#0d0d0d&quot;&gt;&lt;span style=&quot;caret-color: rgb(13, 13, 13); font-size: 15px; font-weight: normal;&quot;&gt;-generatebasicreport()&lt;/span&gt;&lt;/font&gt;&lt;/div&gt;&lt;div&gt;&lt;br&gt;&lt;/div&gt;&lt;div&gt;&lt;font face=&quot;ui-sans-serif, -apple-system, system-ui, Segoe UI, Helvetica, Apple Color Emoji, Arial, sans-serif, Segoe UI Emoji, Segoe UI Symbol&quot; color=&quot;#0d0d0d&quot;&gt;&lt;span style=&quot;caret-color: rgb(13, 13, 13); font-size: 15px; font-weight: normal;&quot;&gt;&lt;br&gt;&lt;/span&gt;&lt;/font&gt;&lt;/div&gt;&lt;/h1&gt;" style="text;html=1;whiteSpace=wrap;overflow=hidden;rounded=0;" parent="q-qK2rlPC7f7n4-ZsQlf-14" vertex="1">
          <mxGeometry x="10" y="30" width="250" height="220" as="geometry" />
        </mxCell>
        <mxCell id="q-qK2rlPC7f7n4-ZsQlf-16" value="&lt;font size=&quot;3&quot;&gt;AIengine&lt;/font&gt;" style="swimlane;whiteSpace=wrap;html=1;fillColor=#dae8fc;strokeColor=#6c8ebf;" parent="1" vertex="1">
          <mxGeometry x="60" y="710" width="280" height="210" as="geometry" />
        </mxCell>
        <mxCell id="q-qK2rlPC7f7n4-ZsQlf-17" value="&lt;h1 style=&quot;margin-top: 0px;&quot;&gt;&lt;div&gt;&lt;font face=&quot;ui-sans-serif, -apple-system, system-ui, Segoe UI, Helvetica, Apple Color Emoji, Arial, sans-serif, Segoe UI Emoji, Segoe UI Symbol&quot; color=&quot;#0d0d0d&quot;&gt;&lt;span style=&quot;caret-color: rgb(13, 13, 13); font-size: 15px;&quot;&gt;Attributes&lt;/span&gt;&lt;/font&gt;&lt;/div&gt;&lt;div&gt;&lt;font face=&quot;ui-sans-serif, -apple-system, system-ui, Segoe UI, Helvetica, Apple Color Emoji, Arial, sans-serif, Segoe UI Emoji, Segoe UI Symbol&quot; color=&quot;#0d0d0d&quot;&gt;&lt;span style=&quot;caret-color: rgb(13, 13, 13); font-size: 15px; font-weight: normal;&quot;&gt;- modelversion&lt;/span&gt;&lt;/font&gt;&lt;/div&gt;&lt;div&gt;&lt;font face=&quot;ui-sans-serif, -apple-system, system-ui, Segoe UI, Helvetica, Apple Color Emoji, Arial, sans-serif, Segoe UI Emoji, Segoe UI Symbol&quot; color=&quot;#0d0d0d&quot;&gt;&lt;span style=&quot;caret-color: rgb(13, 13, 13); font-size: 15px; font-weight: normal;&quot;&gt;-accuracy&lt;/span&gt;&lt;/font&gt;&lt;span style=&quot;caret-color: rgb(13, 13, 13); font-size: 15px; font-weight: normal; color: rgb(13, 13, 13); font-family: ui-sans-serif, -apple-system, system-ui, &amp;quot;Segoe UI&amp;quot;, Helvetica, &amp;quot;Apple Color Emoji&amp;quot;, Arial, sans-serif, &amp;quot;Segoe UI Emoji&amp;quot;, &amp;quot;Segoe UI Symbol&amp;quot;;&quot;&gt;&amp;nbsp;&lt;/span&gt;&lt;/div&gt;&lt;div&gt;&lt;font face=&quot;ui-sans-serif, -apple-system, system-ui, Segoe UI, Helvetica, Apple Color Emoji, Arial, sans-serif, Segoe UI Emoji, Segoe UI Symbol&quot; color=&quot;#0d0d0d&quot;&gt;&lt;span style=&quot;caret-color: rgb(13, 13, 13); font-size: 15px;&quot;&gt;Methods&lt;/span&gt;&lt;/font&gt;&lt;/div&gt;&lt;div&gt;&lt;font face=&quot;ui-sans-serif, -apple-system, system-ui, Segoe UI, Helvetica, Apple Color Emoji, Arial, sans-serif, Segoe UI Emoji, Segoe UI Symbol&quot; color=&quot;#0d0d0d&quot;&gt;&lt;span style=&quot;caret-color: rgb(13, 13, 13); font-size: 15px; font-weight: normal;&quot;&gt;-analysephotos()&lt;/span&gt;&lt;/font&gt;&lt;/div&gt;&lt;div&gt;&lt;font face=&quot;ui-sans-serif, -apple-system, system-ui, Segoe UI, Helvetica, Apple Color Emoji, Arial, sans-serif, Segoe UI Emoji, Segoe UI Symbol&quot; color=&quot;#0d0d0d&quot;&gt;&lt;span style=&quot;caret-color: rgb(13, 13, 13); font-size: 15px; font-weight: normal;&quot;&gt;- generate_recommendations()&lt;/span&gt;&lt;/font&gt;&lt;/div&gt;&lt;div&gt;&lt;br&gt;&lt;/div&gt;&lt;/h1&gt;" style="text;html=1;whiteSpace=wrap;overflow=hidden;rounded=0;" parent="q-qK2rlPC7f7n4-ZsQlf-16" vertex="1">
          <mxGeometry x="10" y="30" width="270" height="190" as="geometry" />
        </mxCell>
        <mxCell id="q-qK2rlPC7f7n4-ZsQlf-18" value="&lt;font size=&quot;3&quot;&gt;Recommendations&lt;/font&gt;" style="swimlane;whiteSpace=wrap;html=1;fillColor=#dae8fc;strokeColor=#6c8ebf;" parent="1" vertex="1">
          <mxGeometry y="1020" width="290" height="260" as="geometry" />
        </mxCell>
        <mxCell id="q-qK2rlPC7f7n4-ZsQlf-19" value="&lt;h1 style=&quot;margin-top: 0px;&quot;&gt;&lt;div&gt;&lt;font face=&quot;ui-sans-serif, -apple-system, system-ui, Segoe UI, Helvetica, Apple Color Emoji, Arial, sans-serif, Segoe UI Emoji, Segoe UI Symbol&quot; color=&quot;#0d0d0d&quot;&gt;&lt;span style=&quot;caret-color: rgb(13, 13, 13); font-size: 15px;&quot;&gt;Attributes&lt;/span&gt;&lt;/font&gt;&lt;/div&gt;&lt;div&gt;&lt;font face=&quot;ui-sans-serif, -apple-system, system-ui, Segoe UI, Helvetica, Apple Color Emoji, Arial, sans-serif, Segoe UI Emoji, Segoe UI Symbol&quot; color=&quot;#0d0d0d&quot;&gt;&lt;span style=&quot;caret-color: rgb(13, 13, 13); font-size: 15px; font-weight: normal;&quot;&gt;-clothingpalette&lt;/span&gt;&lt;/font&gt;&lt;/div&gt;&lt;div&gt;&lt;font face=&quot;ui-sans-serif, -apple-system, system-ui, Segoe UI, Helvetica, Apple Color Emoji, Arial, sans-serif, Segoe UI Emoji, Segoe UI Symbol&quot; color=&quot;#0d0d0d&quot;&gt;&lt;span style=&quot;caret-color: rgb(13, 13, 13); font-size: 15px; font-weight: normal;&quot;&gt;- jwellerypalette&lt;/span&gt;&lt;/font&gt;&lt;/div&gt;&lt;div&gt;&lt;font face=&quot;ui-sans-serif, -apple-system, system-ui, Segoe UI, Helvetica, Apple Color Emoji, Arial, sans-serif, Segoe UI Emoji, Segoe UI Symbol&quot; color=&quot;#0d0d0d&quot;&gt;&lt;span style=&quot;caret-color: rgb(13, 13, 13); font-size: 15px; font-weight: normal;&quot;&gt;-&amp;nbsp;&lt;/span&gt;&lt;span style=&quot;caret-color: rgb(13, 13, 13); font-size: 15px; font-weight: 400;&quot;&gt;seasonal wear&lt;/span&gt;&lt;/font&gt;&lt;/div&gt;&lt;div&gt;&lt;font face=&quot;ui-sans-serif, -apple-system, system-ui, Segoe UI, Helvetica, Apple Color Emoji, Arial, sans-serif, Segoe UI Emoji, Segoe UI Symbol&quot; color=&quot;#0d0d0d&quot;&gt;&lt;span style=&quot;caret-color: rgb(13, 13, 13); font-size: 15px; font-weight: normal;&quot;&gt;&lt;br&gt;&lt;/span&gt;&lt;/font&gt;&lt;/div&gt;&lt;div&gt;&lt;font face=&quot;ui-sans-serif, -apple-system, system-ui, Segoe UI, Helvetica, Apple Color Emoji, Arial, sans-serif, Segoe UI Emoji, Segoe UI Symbol&quot; color=&quot;#0d0d0d&quot;&gt;&lt;span style=&quot;caret-color: rgb(13, 13, 13); font-size: 15px;&quot;&gt;Methods&lt;/span&gt;&lt;/font&gt;&lt;/div&gt;&lt;div&gt;&lt;font face=&quot;ui-sans-serif, -apple-system, system-ui, Segoe UI, Helvetica, Apple Color Emoji, Arial, sans-serif, Segoe UI Emoji, Segoe UI Symbol&quot; color=&quot;#0d0d0d&quot;&gt;&lt;span style=&quot;caret-color: rgb(13, 13, 13); font-size: 15px; font-weight: normal;&quot;&gt;-generatepersonalisedreport()&lt;/span&gt;&lt;/font&gt;&lt;/div&gt;&lt;div&gt;&lt;br&gt;&lt;/div&gt;&lt;div&gt;&lt;br&gt;&lt;/div&gt;&lt;/h1&gt;" style="text;html=1;whiteSpace=wrap;overflow=hidden;rounded=0;" parent="q-qK2rlPC7f7n4-ZsQlf-18" vertex="1">
          <mxGeometry x="15" y="30" width="265" height="220" as="geometry" />
        </mxCell>
        <mxCell id="q-qK2rlPC7f7n4-ZsQlf-22" value="" style="endArrow=none;html=1;rounded=0;exitX=1;exitY=0.5;exitDx=0;exitDy=0;entryX=0;entryY=0.5;entryDx=0;entryDy=0;" parent="1" source="q-qK2rlPC7f7n4-ZsQlf-17" target="q-qK2rlPC7f7n4-ZsQlf-14" edge="1">
          <mxGeometry width="50" height="50" relative="1" as="geometry">
            <mxPoint x="330" y="430" as="sourcePoint" />
            <mxPoint x="380" y="380" as="targetPoint" />
          </mxGeometry>
        </mxCell>
        <mxCell id="q-qK2rlPC7f7n4-ZsQlf-20" value="&lt;font size=&quot;3&quot;&gt;Suscription&lt;/font&gt;" style="swimlane;whiteSpace=wrap;html=1;fillColor=#dae8fc;strokeColor=#6c8ebf;" parent="1" vertex="1">
          <mxGeometry x="-290" y="630" width="270" height="290" as="geometry" />
        </mxCell>
        <mxCell id="q-qK2rlPC7f7n4-ZsQlf-21" value="&lt;h1 style=&quot;margin-top: 0px;&quot;&gt;&lt;div&gt;&lt;font face=&quot;ui-sans-serif, -apple-system, system-ui, Segoe UI, Helvetica, Apple Color Emoji, Arial, sans-serif, Segoe UI Emoji, Segoe UI Symbol&quot; color=&quot;#0d0d0d&quot;&gt;&lt;span style=&quot;caret-color: rgb(13, 13, 13); font-size: 15px;&quot;&gt;Attributes&lt;/span&gt;&lt;/font&gt;&lt;/div&gt;&lt;div&gt;&lt;font face=&quot;ui-sans-serif, -apple-system, system-ui, Segoe UI, Helvetica, Apple Color Emoji, Arial, sans-serif, Segoe UI Emoji, Segoe UI Symbol&quot; color=&quot;#0d0d0d&quot;&gt;&lt;span style=&quot;caret-color: rgb(13, 13, 13); font-size: 15px; font-weight: normal;&quot;&gt;- subscriptionId&lt;/span&gt;&lt;/font&gt;&lt;/div&gt;&lt;div&gt;&lt;font face=&quot;ui-sans-serif, -apple-system, system-ui, Segoe UI, Helvetica, Apple Color Emoji, Arial, sans-serif, Segoe UI Emoji, Segoe UI Symbol&quot; color=&quot;#0d0d0d&quot;&gt;&lt;span style=&quot;caret-color: rgb(13, 13, 13); font-size: 15px; font-weight: normal;&quot;&gt;-userID&lt;/span&gt;&lt;/font&gt;&lt;/div&gt;&lt;div&gt;&lt;font face=&quot;ui-sans-serif, -apple-system, system-ui, Segoe UI, Helvetica, Apple Color Emoji, Arial, sans-serif, Segoe UI Emoji, Segoe UI Symbol&quot; color=&quot;#0d0d0d&quot;&gt;&lt;span style=&quot;caret-color: rgb(13, 13, 13); font-size: 15px; font-weight: normal;&quot;&gt;-subscriptionType&lt;/span&gt;&lt;/font&gt;&lt;/div&gt;&lt;div&gt;&lt;font face=&quot;ui-sans-serif, -apple-system, system-ui, Segoe UI, Helvetica, Apple Color Emoji, Arial, sans-serif, Segoe UI Emoji, Segoe UI Symbol&quot; color=&quot;#0d0d0d&quot;&gt;&lt;span style=&quot;caret-color: rgb(13, 13, 13); font-size: 15px; font-weight: normal;&quot;&gt;-paymentStatus&lt;/span&gt;&lt;/font&gt;&lt;/div&gt;&lt;div&gt;&lt;font face=&quot;ui-sans-serif, -apple-system, system-ui, Segoe UI, Helvetica, Apple Color Emoji, Arial, sans-serif, Segoe UI Emoji, Segoe UI Symbol&quot; color=&quot;#0d0d0d&quot;&gt;&lt;span style=&quot;caret-color: rgb(13, 13, 13); font-size: 15px; font-weight: normal;&quot;&gt;&lt;br&gt;&lt;/span&gt;&lt;/font&gt;&lt;/div&gt;&lt;div&gt;&lt;font face=&quot;ui-sans-serif, -apple-system, system-ui, Segoe UI, Helvetica, Apple Color Emoji, Arial, sans-serif, Segoe UI Emoji, Segoe UI Symbol&quot; color=&quot;#0d0d0d&quot;&gt;&lt;span style=&quot;caret-color: rgb(13, 13, 13); font-size: 15px;&quot;&gt;Methods&lt;/span&gt;&lt;/font&gt;&lt;/div&gt;&lt;div&gt;&lt;font face=&quot;ui-sans-serif, -apple-system, system-ui, Segoe UI, Helvetica, Apple Color Emoji, Arial, sans-serif, Segoe UI Emoji, Segoe UI Symbol&quot; color=&quot;#0d0d0d&quot;&gt;&lt;span style=&quot;caret-color: rgb(13, 13, 13); font-size: 15px; font-weight: normal;&quot;&gt;-processpayment()&lt;/span&gt;&lt;/font&gt;&lt;/div&gt;&lt;div&gt;&lt;br&gt;&lt;/div&gt;&lt;/h1&gt;" style="text;html=1;whiteSpace=wrap;overflow=hidden;rounded=0;" parent="q-qK2rlPC7f7n4-ZsQlf-20" vertex="1">
          <mxGeometry x="10" y="30" width="250" height="240" as="geometry" />
        </mxCell>
        <mxCell id="--QeOHxt_z759qouuIpq-1" value="" style="endArrow=none;html=1;rounded=0;exitX=1;exitY=0.5;exitDx=0;exitDy=0;entryX=0;entryY=0.5;entryDx=0;entryDy=0;" parent="1" source="q-qK2rlPC7f7n4-ZsQlf-6" target="q-qK2rlPC7f7n4-ZsQlf-12" edge="1">
          <mxGeometry width="50" height="50" relative="1" as="geometry">
            <mxPoint x="130" y="600" as="sourcePoint" />
            <mxPoint x="180" y="550" as="targetPoint" />
          </mxGeometry>
        </mxCell>
        <mxCell id="--QeOHxt_z759qouuIpq-2" value="" style="endArrow=none;html=1;rounded=0;exitX=0.5;exitY=1;exitDx=0;exitDy=0;entryX=0.5;entryY=0;entryDx=0;entryDy=0;" parent="1" source="q-qK2rlPC7f7n4-ZsQlf-6" target="q-qK2rlPC7f7n4-ZsQlf-20" edge="1">
          <mxGeometry width="50" height="50" relative="1" as="geometry">
            <mxPoint x="130" y="600" as="sourcePoint" />
            <mxPoint x="180" y="550" as="targetPoint" />
          </mxGeometry>
        </mxCell>
        <mxCell id="--QeOHxt_z759qouuIpq-3" value="" style="endArrow=none;html=1;rounded=0;entryX=0.5;entryY=1;entryDx=0;entryDy=0;" parent="1" target="q-qK2rlPC7f7n4-ZsQlf-12" edge="1">
          <mxGeometry width="50" height="50" relative="1" as="geometry">
            <mxPoint x="400" y="630" as="sourcePoint" />
            <mxPoint x="180" y="550" as="targetPoint" />
          </mxGeometry>
        </mxCell>
        <mxCell id="--QeOHxt_z759qouuIpq-4" value="" style="endArrow=none;html=1;rounded=0;" parent="1" edge="1">
          <mxGeometry width="50" height="50" relative="1" as="geometry">
            <mxPoint x="200" y="630" as="sourcePoint" />
            <mxPoint x="620" y="630" as="targetPoint" />
          </mxGeometry>
        </mxCell>
        <mxCell id="--QeOHxt_z759qouuIpq-5" value="" style="endArrow=none;html=1;rounded=0;exitX=0.5;exitY=0;exitDx=0;exitDy=0;" parent="1" source="q-qK2rlPC7f7n4-ZsQlf-16" edge="1">
          <mxGeometry width="50" height="50" relative="1" as="geometry">
            <mxPoint x="130" y="600" as="sourcePoint" />
            <mxPoint x="200" y="630" as="targetPoint" />
          </mxGeometry>
        </mxCell>
        <mxCell id="--QeOHxt_z759qouuIpq-6" value="" style="endArrow=none;html=1;rounded=0;exitX=0.5;exitY=0;exitDx=0;exitDy=0;" parent="1" source="q-qK2rlPC7f7n4-ZsQlf-14" edge="1">
          <mxGeometry width="50" height="50" relative="1" as="geometry">
            <mxPoint x="380" y="610" as="sourcePoint" />
            <mxPoint x="620" y="630" as="targetPoint" />
          </mxGeometry>
        </mxCell>
        <mxCell id="--QeOHxt_z759qouuIpq-7" value="" style="endArrow=none;html=1;rounded=0;entryX=0.5;entryY=0;entryDx=0;entryDy=0;" parent="1" target="q-qK2rlPC7f7n4-ZsQlf-18" edge="1">
          <mxGeometry width="50" height="50" relative="1" as="geometry">
            <mxPoint x="200" y="920" as="sourcePoint" />
            <mxPoint x="190" y="1160" as="targetPoint" />
          </mxGeometry>
        </mxCell>
        <mxCell id="--QeOHxt_z759qouuIpq-8" value="" style="endArrow=none;html=1;rounded=0;exitX=0.5;exitY=1;exitDx=0;exitDy=0;entryX=0.5;entryY=0;entryDx=0;entryDy=0;" parent="1" source="q-qK2rlPC7f7n4-ZsQlf-20" target="q-qK2rlPC7f7n4-ZsQlf-18" edge="1">
          <mxGeometry width="50" height="50" relative="1" as="geometry">
            <mxPoint x="-230" y="1180" as="sourcePoint" />
            <mxPoint x="190" y="1160" as="targetPoint" />
          </mxGeometry>
        </mxCell>
        <mxCell id="--QeOHxt_z759qouuIpq-9" value="1:1" style="text;html=1;align=center;verticalAlign=middle;whiteSpace=wrap;rounded=0;" parent="1" vertex="1">
          <mxGeometry x="-160" y="569.5" width="60" height="30" as="geometry" />
        </mxCell>
        <mxCell id="--QeOHxt_z759qouuIpq-10" value="1:1" style="text;html=1;align=center;verticalAlign=middle;whiteSpace=wrap;rounded=0;" parent="1" vertex="1">
          <mxGeometry x="384" y="810" width="60" height="30" as="geometry" />
        </mxCell>
        <mxCell id="--QeOHxt_z759qouuIpq-11" value="1:1" style="text;html=1;align=center;verticalAlign=middle;whiteSpace=wrap;rounded=0;" parent="1" vertex="1">
          <mxGeometry x="150" y="660" width="60" height="30" as="geometry" />
        </mxCell>
        <mxCell id="--QeOHxt_z759qouuIpq-13" value="1:1" style="text;html=1;align=center;verticalAlign=middle;whiteSpace=wrap;rounded=0;" parent="1" vertex="1">
          <mxGeometry x="160" y="960" width="60" height="30" as="geometry" />
        </mxCell>
        <mxCell id="--QeOHxt_z759qouuIpq-14" value="1:1" style="text;html=1;align=center;verticalAlign=middle;whiteSpace=wrap;rounded=0;" parent="1" vertex="1">
          <mxGeometry x="-90" y="960" width="60" height="30" as="geometry" />
        </mxCell>
      </root>
    </mxGraphModel>
  </diagram>
</mxfile>
